<?xml version="1.0" encoding="UTF-8"?><svg id="_レイヤー_2" xmlns="http://www.w3.org/2000/svg" viewBox="0 0 264.72 57.45"><defs><style>.cls-1{fill:#379e49;}.cls-1,.cls-2{stroke-width:0px;}.cls-2{fill:#251e1c;}</style></defs><g id="Text"><path class="cls-1" d="m109.98,23.05h2.41c5.35,0,10.71-.78,10.71-7.45,0-4.19-3.26-7.22-7.84-7.22-3.73,0-6.91,2.25-8.23,6.05l-9.86-2.64c2.41-8.15,9.54-11.8,17.62-11.8,9.47,0,17.62,4.97,17.62,14.67,0,5.9-3.57,10.94-9.39,12.42v.16c6.98,1.01,10.71,6.6,10.71,13.35,0,10.48-8.77,16.22-18.55,16.22-9,0-16.45-3.73-18.86-12.88l9.93-2.64c1.16,4.5,3.96,7.14,8.92,7.14s9.24-3.49,9.24-8.61c0-7.14-6.52-8.38-12.18-8.38h-2.25v-8.38Z"/><path class="cls-1" d="m174.16.93l-13.19,20.33.16.16c1.09-.62,3.26-.93,5.12-.93,9.7,0,16.53,7.99,16.53,17.54,0,11.41-8.3,18.78-19.56,18.78s-19.56-7.06-19.56-18.7c0-5.74,2.09-10.24,5.12-15.06L162.83.93h11.33Zm-10.71,47.03c5.51,0,10.01-4.5,10.01-10.01s-4.5-10.01-10.01-10.01-10.01,4.5-10.01,10.01,4.5,10.01,10.01,10.01Z"/><path class="cls-1" d="m212.26,0c6.13,0,19.87,2.41,19.87,28.4s-13.74,28.4-19.87,28.4-19.87-2.41-19.87-28.4S206.13,0,212.26,0Zm0,47.96c9.31,0,10.55-12.73,10.55-19.56s-1.24-19.56-10.55-19.56-10.55,12.73-10.55,19.56,1.24,19.56,10.55,19.56Z"/><path class="cls-1" d="m252.3,0c6.83,0,12.42,5.59,12.42,12.42s-5.59,12.42-12.42,12.42-12.42-5.59-12.42-12.42,5.59-12.42,12.42-12.42Zm0,18.78c3.49,0,6.36-2.87,6.36-6.36s-2.87-6.36-6.36-6.36-6.36,2.87-6.36,6.36,2.87,6.36,6.36,6.36Z"/><path class="cls-2" d="m3.66,15.87c-.11,0-.18-.07-.18-.18v-4.73L.01,4.04c-.04-.09.02-.18.14-.18h1.78c.11,0,.19.05.25.18l2.35,4.66h.05l2.37-4.66c.05-.12.12-.18.25-.18h1.71c.14,0,.18.09.14.18l-3.48,6.92v4.73c0,.11-.07.18-.18.18h-1.73Z"/><path class="cls-2" d="m9.67,13.71c-.19-.6-.28-1.17-.28-2.1s.09-1.5.28-2.1c.48-1.48,1.78-2.35,3.51-2.35s3.02.87,3.5,2.35c.19.6.28,1.17.28,2.1s-.09,1.5-.28,2.1c-.48,1.48-1.78,2.35-3.5,2.35s-3.04-.87-3.51-2.35Zm5.1-.53c.14-.44.18-.85.18-1.57s-.04-1.11-.18-1.57c-.25-.71-.79-1.11-1.59-1.11s-1.36.41-1.61,1.11c-.14.46-.18.85-.18,1.57s.04,1.13.18,1.57c.25.71.81,1.11,1.61,1.11s1.34-.41,1.59-1.11Z"/><path class="cls-2" d="m24.81,15.87c-.11,0-.18-.07-.18-.18v-4.91c0-1.09-.55-1.85-1.61-1.85s-1.62.76-1.62,1.85v4.91c0,.11-.07.18-.18.18h-1.62c-.11,0-.18-.07-.18-.18V7.53c0-.11.07-.18.18-.18h1.62c.11,0,.18.07.18.18v.62h.02c.37-.53,1.11-.99,2.24-.99,1.82,0,2.95,1.34,2.95,3.16v5.37c0,.11-.07.18-.18.18h-1.62Z"/><path class="cls-2" d="m29.29,13.69c-.18-.55-.3-1.2-.3-2.08s.11-1.55.28-2.1c.48-1.48,1.78-2.35,3.48-2.35s3.02.9,3.5,2.35c.19.6.28,1.18.28,2.56,0,.11-.07.18-.19.18h-5.24c-.07,0-.11.04-.11.11,0,.25.05.46.12.65.28.83.95,1.29,1.91,1.29s1.57-.35,2-.81c.09-.09.18-.11.26-.04l1.04.92c.09.07.09.16.02.25-.72.85-1.92,1.45-3.5,1.45-1.8,0-3.07-.88-3.55-2.37Zm5.14-3.76c-.23-.69-.87-1.09-1.66-1.09s-1.45.41-1.68,1.09c-.07.21-.11.42-.11.72,0,.07.04.11.11.11h3.34c.07,0,.11-.04.11-.11,0-.3-.04-.51-.11-.72Z"/><path class="cls-2" d="m38.81,15.87c-.11,0-.18-.07-.18-.18v-1.29c0-.07.02-.12.05-.18l4.34-5.1v-.04h-3.99c-.11,0-.18-.07-.18-.18v-1.38c0-.11.07-.18.18-.18h6.14c.11,0,.18.07.18.18v1.38c0,.09-.02.12-.05.18l-4.29,5.01v.04h4.17c.11,0,.18.07.18.18v1.38c0,.11-.07.18-.18.18h-6.37Z"/><path class="cls-2" d="m52.98,15.87c-.11,0-.18-.07-.18-.18v-.62h-.02c-.41.58-1.2.99-2.4.99-1.55,0-2.86-.81-2.86-2.6s1.31-2.7,3.41-2.7h1.73c.07,0,.11-.04.11-.11v-.41c0-.97-.46-1.41-1.89-1.41-.95,0-1.54.26-1.94.58-.09.07-.19.05-.25-.04l-.65-1.17c-.05-.09-.04-.18.04-.23.69-.49,1.62-.83,3.02-.83,2.59,0,3.55.88,3.55,2.97v5.56c0,.11-.07.18-.18.18h-1.48Zm-.21-2.86v-.65c0-.07-.04-.11-.11-.11h-1.41c-1.27,0-1.84.35-1.84,1.15,0,.71.51,1.06,1.47,1.06,1.22,0,1.89-.48,1.89-1.45Z"/><path class="cls-2" d="m64.74,15.87c-.11,0-.18-.07-.21-.18l-1.64-5.44h-.04l-1.66,5.44c-.04.11-.11.18-.21.18h-1.45c-.11,0-.18-.07-.21-.18l-2.68-8.16c-.04-.11.02-.18.12-.18h1.7c.12,0,.19.05.23.18l1.64,5.61h.04l1.62-5.61c.04-.11.12-.18.23-.18h1.27c.11,0,.19.07.23.18l1.73,5.61h.04l1.55-5.61c.04-.12.11-.18.23-.18h1.69c.11,0,.16.07.12.18l-2.68,8.16c-.04.11-.11.18-.21.18h-1.45Z"/><path class="cls-2" d="m76.11,15.87c-.11,0-.18-.07-.18-.18v-.62h-.02c-.41.58-1.2.99-2.4.99-1.55,0-2.86-.81-2.86-2.6s1.31-2.7,3.41-2.7h1.73c.07,0,.11-.04.11-.11v-.41c0-.97-.46-1.41-1.89-1.41-.95,0-1.54.26-1.94.58-.09.07-.19.05-.25-.04l-.65-1.17c-.05-.09-.04-.18.04-.23.69-.49,1.62-.83,3.02-.83,2.59,0,3.55.88,3.55,2.97v5.56c0,.11-.07.18-.18.18h-1.48Zm-.21-2.86v-.65c0-.07-.04-.11-.11-.11h-1.41c-1.27,0-1.84.35-1.84,1.15,0,.71.51,1.06,1.47,1.06,1.22,0,1.89-.48,1.89-1.45Z"/><path class="cls-2" d="m1.09,32.37c-.25-.74-.32-1.41-.32-3.3s.07-2.56.32-3.3c.62-1.91,2.17-2.9,4.24-2.9s3.64.99,4.25,2.9c.25.74.32,1.41.32,3.3s-.07,2.56-.32,3.3c-.62,1.91-2.17,2.9-4.25,2.9s-3.62-.99-4.24-2.9Zm6.48-.55c.14-.44.21-1.06.21-2.75s-.07-2.31-.21-2.75c-.33-.97-1.04-1.57-2.24-1.57s-1.89.6-2.22,1.57c-.14.44-.21,1.04-.21,2.75s.07,2.31.21,2.75c.33.97,1.04,1.57,2.22,1.57s1.91-.6,2.24-1.57Z"/><path class="cls-2" d="m12.68,38.25c-.11,0-.18-.07-.18-.18v-11.33c0-.11.07-.18.18-.18h1.62c.11,0,.18.07.18.18v.64h.02c.41-.58,1.11-1.01,2.26-1.01,1.45,0,2.51.69,2.95,2.05.21.65.3,1.25.3,2.4s-.09,1.75-.3,2.4c-.44,1.36-1.5,2.05-2.95,2.05-1.15,0-1.85-.42-2.26-1.01h-.02v3.81c0,.11-.07.18-.18.18h-1.62Zm5.14-5.84c.12-.39.18-.81.18-1.59s-.05-1.2-.18-1.59c-.23-.71-.78-1.09-1.57-1.09s-1.36.39-1.59,1.09c-.12.39-.18.81-.18,1.59s.05,1.2.18,1.59c.23.71.78,1.09,1.59,1.09s1.34-.39,1.57-1.09Z"/><path class="cls-2" d="m22.32,32.9c-.18-.55-.3-1.2-.3-2.08s.11-1.55.28-2.1c.48-1.48,1.78-2.35,3.48-2.35s3.02.9,3.5,2.35c.19.6.28,1.18.28,2.56,0,.11-.07.18-.19.18h-5.24c-.07,0-.11.04-.11.11,0,.25.05.46.12.65.28.83.95,1.29,1.91,1.29s1.57-.35,2-.81c.09-.09.18-.11.26-.04l1.04.92c.09.07.09.16.02.25-.72.85-1.92,1.45-3.5,1.45-1.8,0-3.07-.88-3.55-2.37Zm5.14-3.76c-.23-.69-.87-1.09-1.66-1.09s-1.45.41-1.68,1.09c-.07.21-.11.42-.11.72,0,.07.04.11.11.11h3.34c.07,0,.11-.04.11-.11,0-.3-.04-.51-.11-.72Z"/><path class="cls-2" d="m37.42,35.07c-.11,0-.18-.07-.18-.18v-4.91c0-1.09-.55-1.85-1.61-1.85s-1.62.76-1.62,1.85v4.91c0,.11-.07.18-.18.18h-1.62c-.11,0-.18-.07-.18-.18v-8.16c0-.11.07-.18.18-.18h1.62c.11,0,.18.07.18.18v.62h.02c.37-.53,1.11-.99,2.24-.99,1.82,0,2.95,1.34,2.95,3.16v5.37c0,.11-.07.18-.18.18h-1.62Z"/><path class="cls-2" d="m1.12,42.45c0-.11.07-.18.18-.18h7.52c.11,0,.18.07.18.18v1.52c0,.11-.07.18-.18.18H3.31c-.07,0-.11.04-.11.11v3.05c0,.07.04.11.11.11h4.64c.11,0,.18.07.18.18v1.52c0,.11-.07.18-.18.18H3.31c-.07,0-.11.04-.11.11v4.71c0,.11-.07.18-.18.18h-1.73c-.11,0-.18-.07-.18-.18v-11.65Z"/><path class="cls-2" d="m15.67,54.28c-.11,0-.18-.07-.18-.18v-.62h-.02c-.41.58-1.2.99-2.4.99-1.55,0-2.86-.81-2.86-2.6s1.31-2.7,3.41-2.7h1.73c.07,0,.11-.04.11-.11v-.41c0-.97-.46-1.41-1.89-1.41-.95,0-1.54.26-1.94.58-.09.07-.19.05-.25-.04l-.65-1.17c-.05-.09-.04-.18.04-.23.69-.49,1.62-.83,3.02-.83,2.59,0,3.55.88,3.55,2.97v5.56c0,.11-.07.18-.18.18h-1.48Zm-.21-2.86v-.65c0-.07-.04-.11-.11-.11h-1.41c-1.27,0-1.84.35-1.84,1.15,0,.71.51,1.06,1.47,1.06,1.22,0,1.89-.48,1.89-1.45Z"/><path class="cls-2" d="m19.99,52.12c-.18-.53-.26-1.2-.26-2.1s.09-1.57.26-2.1c.49-1.52,1.8-2.35,3.51-2.35,1.27,0,2.28.51,2.95,1.32.05.07.07.18-.02.25l-1.11.97c-.09.07-.18.05-.25-.04-.42-.48-.86-.74-1.57-.74-.76,0-1.34.37-1.59,1.11-.14.42-.18.92-.18,1.57s.04,1.17.18,1.59c.25.72.83,1.09,1.59,1.09.71,0,1.15-.26,1.57-.74.07-.09.16-.09.25-.02l1.11.97c.09.07.07.16.02.25-.67.79-1.68,1.31-2.95,1.31-1.71,0-3.02-.83-3.51-2.35Z"/><path class="cls-2" d="m31.41,54.38c-1.71,0-2.37-.83-2.37-2.49v-4.48c0-.07-.04-.11-.11-.11h-.57c-.11,0-.18-.07-.18-.18v-1.18c0-.11.07-.18.18-.18h.57c.07,0,.11-.04.11-.11v-2.33c0-.11.07-.18.18-.18h1.62c.11,0,.18.07.18.18v2.33c0,.07.04.11.11.11h1.13c.11,0,.18.07.18.18v1.18c0,.11-.07.18-.18.18h-1.13c-.07,0-.11.04-.11.11v4.41c0,.6.25.79.79.79h.44c.11,0,.18.07.18.18v1.41c0,.11-.07.18-.18.18h-.85Z"/><path class="cls-2" d="m34.77,52.12c-.19-.6-.28-1.17-.28-2.1s.09-1.5.28-2.1c.48-1.48,1.78-2.35,3.51-2.35s3.02.87,3.5,2.35c.19.6.28,1.17.28,2.1s-.09,1.5-.28,2.1c-.48,1.48-1.78,2.35-3.5,2.35s-3.04-.87-3.51-2.35Zm5.1-.53c.14-.44.18-.85.18-1.57s-.04-1.11-.18-1.57c-.25-.71-.79-1.11-1.59-1.11s-1.36.41-1.61,1.11c-.14.46-.18.85-.18,1.57s.04,1.13.18,1.57c.25.71.81,1.11,1.61,1.11s1.34-.41,1.59-1.11Z"/><path class="cls-2" d="m44.7,54.28c-.11,0-.18-.07-.18-.18v-8.16c0-.11.07-.18.18-.18h1.62c.11,0,.18.07.18.18v.72h.02c.41-.65,1.13-1.09,2.21-1.09.67,0,1.34.26,1.78.71.09.09.11.16.04.25l-.94,1.18c-.07.09-.16.11-.25.04-.39-.25-.79-.41-1.25-.41-1.11,0-1.61.79-1.61,2.15v4.61c0,.11-.07.18-.18.18h-1.62Z"/><path class="cls-2" d="m52.65,57.45c-.11,0-.18-.07-.18-.18v-1.41c0-.11.07-.18.18-.18h.32c.67,0,1.01-.3,1.27-1.01l.25-.72-3.11-8.02c-.04-.11.04-.18.14-.18h1.75c.11,0,.18.07.21.18l1.92,5.56h.04l1.84-5.56c.04-.11.11-.18.21-.18h1.68c.11,0,.18.07.14.18l-3.25,8.86c-.74,2.01-1.45,2.65-2.86,2.65h-.55Z"/></g></svg>